# xmcd CD database file
#
# Track frame offsets:
#	183
#	13923
#	32765
#	46575
#	60413
#	71613
#	81395
#	92393
#	106093
#	119345
#	132053
#	145208
#	157675
#	172338
#
# Disc length: 2456 seconds
#
# Revision: 0
# Processed by: cddbd v1.5.2PL0 Copyright (c) Steve Scherf et al.
# Submitted via: CDex 1.70beta2
#
DISCID=ae09960e
DTITLE=Charlie Parker - The Best Of Charlie Parker
DYEAR=1993
DGENRE=Jazz
TTITLE0=Night in Tunisia
TTITLE1=Out of Nowhere
TTITLE2=Parker's mood
TTITLE3=Crazeology
TTITLE4=Merry-go-round
TTITLE5=52nd street theme
TTITLE6=Sippin' at bells
TTITLE7=Moose the moche
TTITLE8=Blue bird
TTITLE9=Half Nelson
TTITLE10=Yardbird suite
TTITLE11=Marmaduke
TTITLE12=Ornithology
TTITLE13=Milestones
EXTD=YEAR: 1993
EXTT0=
EXTT1=
EXTT2=
EXTT3=
EXTT4=
EXTT5=
EXTT6=
EXTT7=
EXTT8=
EXTT9=
EXTT10=
EXTT11=
EXTT12=
EXTT13=
PLAYORDER=
